<?xml version="1.0" encoding="UTF-8" standalone="no"?>
<!-- Created with Inkscape (http://www.inkscape.org/) -->

<svg
   width="119.13573mm"
   height="207.32124mm"
   viewBox="0 0 119.13573 207.32124"
   version="1.1"
   id="svg222"
   inkscape:version="1.1 (c68e22c387, 2021-05-23)"
   sodipodi:docname="Logo.svg"
   xmlns:inkscape="http://www.inkscape.org/namespaces/inkscape"
   xmlns:sodipodi="http://sodipodi.sourceforge.net/DTD/sodipodi-0.dtd"
   xmlns:xlink="http://www.w3.org/1999/xlink"
   xmlns="http://www.w3.org/2000/svg"
   xmlns:svg="http://www.w3.org/2000/svg">
  <sodipodi:namedview
     id="namedview224"
     pagecolor="#ffffff"
     bordercolor="#666666"
     borderopacity="1.0"
     inkscape:pageshadow="2"
     inkscape:pageopacity="0.0"
     inkscape:pagecheckerboard="0"
     inkscape:document-units="mm"
     showgrid="false"
     inkscape:zoom="0.42582772"
     inkscape:cx="386.30646"
     inkscape:cy="365.17115"
     inkscape:window-width="1366"
     inkscape:window-height="705"
     inkscape:window-x="-8"
     inkscape:window-y="-8"
     inkscape:window-maximized="1"
     inkscape:current-layer="layer1" />
  <defs
     id="defs219">
    <inkscape:path-effect
       effect="fillet_chamfer"
       id="path-effect4337"
       is_visible="true"
       lpeversion="1"
       satellites_param="C,0,0,1,0,1.3229167,0,10 @ C,0,0,1,0,1.3229167,0,10 @ C,0,0,1,0,1.3229167,0,10 @ C,0,0,1,0,1.3229167,0,10 @ C,0,0,1,0,1.3229167,0,10 @ C,0,0,1,0,1.3229167,0,10 @ C,0,0,1,0,1.3229167,0,10 @ C,0,0,1,0,1.3229167,0,10 @ C,0,0,1,0,1.3229167,0,10 @ C,0,0,1,0,1.3229167,0,10"
       unit="px"
       method="auto"
       mode="F"
       radius="5"
       chamfer_steps="10"
       flexible="false"
       use_knot_distance="true"
       apply_no_radius="true"
       apply_with_radius="true"
       only_selected="false"
       hide_knots="false" />
    <inkscape:path-effect
       effect="fillet_chamfer"
       id="path-effect4341"
       is_visible="true"
       lpeversion="1"
       satellites_param="F,0,0,1,0,1.3229167,0,10 @ F,0,0,1,0,1.3229167,0,10 @ F,0,0,1,0,1.3229167,0,10 @ F,0,0,1,0,1.3229167,0,10 @ F,0,0,1,0,1.3229167,0,10"
       unit="px"
       method="auto"
       mode="F"
       radius="5"
       chamfer_steps="10"
       flexible="false"
       use_knot_distance="true"
       apply_no_radius="true"
       apply_with_radius="true"
       only_selected="false"
       hide_knots="false" />
    <inkscape:path-effect
       effect="fillet_chamfer"
       id="path-effect4345"
       is_visible="true"
       lpeversion="1"
       satellites_param="F,0,0,1,0,1.3229167,0,10 @ F,0,0,1,0,1.3229167,0,10 @ F,0,0,1,0,1.3229167,0,10 @ F,0,0,1,0,1.3229167,0,10 @ F,0,0,1,0,1.3229167,0,10"
       unit="px"
       method="auto"
       mode="F"
       radius="5"
       chamfer_steps="10"
       flexible="false"
       use_knot_distance="true"
       apply_no_radius="true"
       apply_with_radius="true"
       only_selected="false"
       hide_knots="false" />
    <inkscape:path-effect
       effect="fillet_chamfer"
       id="path-effect4349"
       is_visible="true"
       lpeversion="1"
       satellites_param="F,0,0,1,0,0,0,1 @ F,0,0,1,0,0,0,1 @ F,0,0,1,0,0,0,1"
       unit="px"
       method="auto"
       mode="F"
       radius="5"
       chamfer_steps="10"
       flexible="false"
       use_knot_distance="true"
       apply_no_radius="true"
       apply_with_radius="true"
       only_selected="false"
       hide_knots="false" />
    <inkscape:path-effect
       effect="fillet_chamfer"
       id="path-effect4353"
       is_visible="true"
       lpeversion="1"
       satellites_param="F,0,0,1,0,1.3229167,0,10 @ F,0,0,1,0,1.3229167,0,10 @ F,0,0,1,0,1.3229167,0,10 @ F,0,0,1,0,1.3229167,0,10"
       unit="px"
       method="auto"
       mode="F"
       radius="5"
       chamfer_steps="10"
       flexible="false"
       use_knot_distance="true"
       apply_no_radius="true"
       apply_with_radius="true"
       only_selected="false"
       hide_knots="false" />
  </defs>
  <g
     inkscape:label="Capa 1"
     inkscape:groupmode="layer"
     id="layer1"
     transform="translate(-2.5660262,-2.5883319)">
    <g
       id="g428"
       transform="translate(-44.115063,-28.58159)">
      <g
         id="g4375"
         transform="rotate(-15,325.78318,336.04049)">
        <path
           id="path4014-1"
           style="fill:#4cc9f0;fill-opacity:1;stroke:#000000;stroke-width:3;stroke-linecap:butt;stroke-linejoin:miter;stroke-miterlimit:4;stroke-dasharray:none;stroke-opacity:1"
           d="m 172.21191,181.78782 h -13.65188 l 6.04821,8.32249 a 0.96142774,0.96142774 0 0 0 1.55546,0 z" />
        <path
           id="path4037-1"
           style="fill:#ffffff;stroke:#000000;stroke-width:3;stroke-linecap:butt;stroke-linejoin:miter;stroke-miterlimit:4;stroke-dasharray:none;stroke-opacity:1"
           d="m 179.2306,170.39988 h -27.68875 v 0.40773 a 4.0705852,4.0705852 0 0 0 0.77773,2.39314 l 6.24045,8.58707 h 13.65188 l 7.01869,-9.65729 z" />
        <path
           id="path4043-6"
           style="fill:#4cc9f0;fill-opacity:1;stroke:#000000;stroke-width:3;stroke-linecap:butt;stroke-linejoin:miter;stroke-miterlimit:4;stroke-dasharray:none;stroke-opacity:1"
           d="M 179.2306,0.68053096 H 151.54185 V 170.39988 h 27.68875 z" />
        <path
           id="path4138-1"
           style="fill:#f72585;fill-opacity:1;stroke:#000000;stroke-width:3;stroke-linecap:butt;stroke-linejoin:miter;stroke-miterlimit:4;stroke-dasharray:none;stroke-opacity:1"
           d="m 152.86477,-17.610342 a 1.3229166,1.3229166 0 0 0 -1.32292,1.322916 V 0.68053096 H 179.2306 V -16.287426 a 1.3229166,1.3229166 0 0 0 -1.32292,-1.322916 z" />
      </g>
      <path
         sodipodi:type="inkscape:offset"
         inkscape:radius="0"
         inkscape:original="M 68.158203 179.90039 L 67.898438 179.91016 L 67.642578 179.9375 L 67.396484 179.98242 L 67.166016 180.04492 L 66.955078 180.12695 C 55.789152 185.18852 44.622859 190.2507 33.457031 195.3125 L 33.261719 195.41797 L 33.076172 195.55273 L 32.902344 195.71094 L 32.744141 195.89062 L 32.605469 196.08594 L 32.484375 196.29492 L 32.386719 196.51172 L 32.3125 196.73438 L 32.267578 196.95898 L 32.251953 197.18164 L 32.251953 224.44531 L 32.265625 224.67969 L 32.304688 224.91211 L 32.371094 225.13672 L 32.462891 225.35352 L 32.578125 225.55664 L 32.716797 225.74609 L 32.876953 225.91992 L 33.054688 226.07227 L 33.248047 226.20508 L 33.457031 226.31445 L 45.029297 231.56055 L 45.208984 231.66016 L 45.371094 231.78711 L 45.509766 231.9375 L 45.625 232.10938 L 45.708984 232.29688 L 45.763672 232.49414 L 45.785156 232.69922 L 45.773438 232.9043 L 45.730469 233.10547 L 45.65625 233.29688 L 38.048828 248.9375 L 37.972656 249.13086 L 37.927734 249.33398 L 37.916016 249.54102 L 37.935547 249.74805 L 37.986328 249.94922 L 38.070312 250.14062 L 38.181641 250.31641 L 38.318359 250.47266 L 38.478516 250.60547 L 38.65625 250.71289 L 66.892578 264.66797 L 67.117188 264.76562 L 67.351562 264.84375 L 67.589844 264.90039 L 67.833984 264.93359 L 68.080078 264.94727 L 68.324219 264.93555 L 68.568359 264.90234 L 68.808594 264.84766 L 69.041016 264.77148 L 69.267578 264.67383 L 97.642578 250.8418 L 97.822266 250.73633 L 97.982422 250.60352 L 98.121094 250.44727 L 98.234375 250.27344 L 98.318359 250.08203 L 98.371094 249.88086 L 98.392578 249.67383 L 98.380859 249.46484 L 98.337891 249.26172 L 98.263672 249.06641 L 90.744141 233.25977 L 90.671875 233.06641 L 90.628906 232.86523 L 90.619141 232.6582 L 90.642578 232.45312 L 90.697266 232.25586 L 90.783203 232.06836 L 90.898438 231.89648 L 91.039062 231.74414 L 91.201172 231.61719 L 91.380859 231.51758 L 102.86133 226.31445 L 103.07031 226.20508 L 103.26367 226.07227 L 103.44141 225.91992 L 103.60156 225.74609 L 103.73828 225.55664 L 103.85547 225.35352 L 103.94727 225.13672 L 104.01367 224.91016 L 104.05273 224.67969 L 104.06641 224.44531 L 104.06641 197.18164 L 104.05078 196.95898 L 104.00391 196.73438 L 103.93164 196.51172 L 103.83398 196.29492 L 103.71289 196.08594 L 103.57227 195.89062 L 103.41406 195.71094 L 103.24219 195.55273 L 103.05664 195.41797 L 102.86133 195.3125 C 91.695916 190.25041 80.52923 185.18847 69.363281 180.12695 L 69.152344 180.04492 L 68.921875 179.98242 L 68.675781 179.9375 L 68.419922 179.91016 L 68.158203 179.90039 z "
         xlink:href="#path4694"
         style="display:inline;fill:#ffffff;fill-opacity:1;stroke:#000001;stroke-width:2;stroke-linecap:round;stroke-linejoin:round;stroke-miterlimit:4;stroke-dasharray:none;stroke-opacity:1"
         id="path298-7-9"
         inkscape:href="#path4694"
         transform="matrix(1.6139891,0,0,1.6139891,-3.7592223,-222.53143)"
         d="m 68.158203,179.90039 -0.259765,0.01 -0.25586,0.0273 -0.246094,0.0449 -0.230468,0.0625 -0.210938,0.082 C 55.789152,185.18852 44.622859,190.2507 33.457031,195.3125 l -0.195312,0.10547 -0.185547,0.13476 -0.173828,0.15821 -0.158203,0.17968 -0.138672,0.19532 -0.121094,0.20898 -0.09766,0.2168 -0.07422,0.22266 -0.04492,0.2246 -0.01563,0.22266 v 27.26367 l 0.01367,0.23438 0.03906,0.23242 0.06641,0.22461 0.0918,0.2168 0.115234,0.20312 0.138672,0.18945 0.160156,0.17383 0.177735,0.15235 0.193359,0.13281 0.208984,0.10937 11.572266,5.2461 0.179687,0.0996 0.16211,0.12695 0.138672,0.15039 0.115234,0.17188 0.08398,0.1875 0.05469,0.19726 0.02148,0.20508 -0.01172,0.20508 -0.04297,0.20117 -0.07422,0.19141 -7.607422,15.64062 -0.07617,0.19336 -0.04492,0.20312 -0.01172,0.20704 0.01953,0.20703 0.05078,0.20117 0.08398,0.1914 0.111329,0.17579 0.136718,0.15625 0.160157,0.13281 0.177734,0.10742 28.236328,13.95508 0.22461,0.0976 0.234374,0.0781 0.238282,0.0566 0.24414,0.0332 0.246094,0.0137 0.244141,-0.0117 0.24414,-0.0332 0.240235,-0.0547 0.232422,-0.0762 0.226562,-0.0976 28.375,-13.83203 0.179688,-0.10547 0.160156,-0.13281 0.138672,-0.15625 0.113281,-0.17383 0.08398,-0.19141 0.05273,-0.20117 0.02148,-0.20703 -0.01172,-0.20899 -0.04297,-0.20312 -0.07422,-0.19531 -7.519531,-15.80664 -0.07227,-0.19336 -0.04297,-0.20118 -0.0098,-0.20703 0.02344,-0.20508 0.05469,-0.19726 0.08594,-0.1875 0.115235,-0.17188 0.140624,-0.15234 0.16211,-0.12695 0.179687,-0.0996 11.480471,-5.20313 0.20898,-0.10937 0.19336,-0.13281 0.17774,-0.15235 0.16015,-0.17383 0.13672,-0.18945 0.11719,-0.20312 0.0918,-0.2168 0.0664,-0.22656 0.0391,-0.23047 0.0137,-0.23438 v -27.26367 l -0.0156,-0.22266 -0.0469,-0.2246 -0.0723,-0.22266 -0.0977,-0.2168 -0.12109,-0.20898 -0.14062,-0.19532 -0.15821,-0.17968 -0.17187,-0.15821 -0.18555,-0.13476 -0.19531,-0.10547 C 91.695916,190.25041 80.52923,185.18847 69.363281,180.12695 l -0.210937,-0.082 -0.230469,-0.0625 -0.246094,-0.0449 -0.255859,-0.0273 z" />
      <path
         sodipodi:nodetypes="ccccccccccc"
         inkscape:connector-curvature="0"
         id="path300-9-2"
         d="M 105.04388,67.856156 C 86.528993,76.249038 68.014287,84.642298 49.49957,93.035567 l -0.195439,0.105913 -0.185399,0.134175 -0.172878,0.158589 -0.157876,0.179155 -0.140394,0.195871 -0.12043,0.208741 -0.09799,0.217761 -0.07306,0.222933 -0.04566,0.224258 -0.01577,0.221733 v 45.628254 l 0.01344,0.23451 0.04015,0.23143 0.06633,0.22532 0.09165,0.21627 0.115758,0.20438 0.138354,0.18982 0.159138,0.17276 0.177836,0.15345 0.194206,0.13212 0.208032,0.10907 20.157992,9.13806 0.179818,0.0995 0.161693,0.12686 0.139448,0.15098 0.113651,0.17124 0.08496,0.18714 0.0541,0.19827 0.02187,0.20436 -0.01093,0.20523 -0.04344,0.20088 -0.07485,0.19141 -12.986714,26.70401 -0.0761,0.19366 -0.045,0.20314 -0.0128,0.20768 0.01972,0.20714 0.05175,0.20153 0.08252,0.19101 0.111269,0.17582 0.137304,0.15634 0.159984,0.13303 0.178759,0.10649 47.028111,23.2429 0.22517,0.0988 0.23322,0.0778 0.23936,0.0563 0.24348,0.0342 0.24558,0.0119 0.24565,-0.0105 0.24367,-0.0329 0.23965,-0.055 0.23365,-0.0766 0.22569,-0.0976 47.25699,-23.03728 0.17956,-0.10561 0.16096,-0.13224 0.13844,-0.15566 0.11256,-0.1753 0.0839,-0.19066 0.0533,-0.20139 0.0213,-0.20722 -0.0112,-0.20802 -0.0434,-0.20375 -0.0745,-0.19453 -12.83231,-26.98093 -0.0735,-0.19265 -0.0421,-0.20185 -0.01,-0.20596 0.0231,-0.2049 0.0552,-0.19865 0.086,-0.18742 0.11454,-0.17145 0.14024,-0.15116 0.16238,-0.12706 0.18045,-0.0998 20.00785,-9.06972 0.20803,-0.10906 0.19421,-0.13212 0.17784,-0.15344 0.15913,-0.17277 0.13836,-0.18981 0.11576,-0.20438 0.0916,-0.21627 0.0663,-0.22533 0.0401,-0.23143 0.0134,-0.2345 V 94.904696 l -0.0158,-0.221734 -0.0457,-0.224258 -0.0731,-0.222936 -0.098,-0.217764 -0.12043,-0.208744 -0.14039,-0.195876 -0.15787,-0.17916 -0.17288,-0.158594 -0.1854,-0.13418 -0.19543,-0.105919 c -18.51448,-8.393799 -37.0294,-16.786582 -55.54433,-25.17938 l -0.21121,-0.08145 -0.23106,-0.06335 -0.24594,-0.04525 -0.25586,-0.02715 -0.26083,-0.009 -0.26083,0.0091 -0.25586,0.02715 -0.24594,0.04525 -0.23106,0.06335 z"
         style="display:inline;fill:#ffffff;fill-opacity:1;stroke:#000001;stroke-width:3;stroke-linecap:round;stroke-linejoin:round;stroke-miterlimit:4;stroke-dasharray:none;stroke-opacity:1"
         inkscape:path-effect="#path-effect4337"
         inkscape:original-d="m 106.24878,67.309969 c -19.318161,8.75699 -38.636122,17.5144 -57.9541,26.27181 0,16.091361 0,32.182731 0,48.274091 l 22.56778,10.23048 -14.143856,29.08339 49.400066,24.4152 49.63527,-24.19668 -13.96871,-29.37029 22.41765,-10.1621 c 0,-16.09136 0,-32.18273 0,-48.274091 -19.31771,-8.75801 -38.63591,-17.51489 -57.9541,-26.27181 z" />
      <path
         inkscape:connector-curvature="0"
         id="path306-0-4"
         d="m 71.083586,141.7375 h 9.097631 a 3.3274336,3.3274336 158.31829 0 0 2.284695,-0.90835 L 97.83725,126.31178 a 3.0690817,3.0690817 113.31829 0 0 0.961778,-2.23127 v -3.65293 a 1.3229167,1.3229167 45 0 0 -1.322917,-1.32292 H 71.083586 a 1.3229167,1.3229167 135 0 0 -1.322917,1.32292 v 19.987 a 1.3229167,1.3229167 45 0 0 1.322917,1.32292 z"
         style="fill:#808080;fill-opacity:1;stroke:#000000;stroke-width:3.22798;stroke-linecap:round;stroke-linejoin:round;stroke-miterlimit:4;stroke-dasharray:none;stroke-opacity:1"
         inkscape:path-effect="#path-effect4341"
         inkscape:original-d="m 69.760669,141.7375 h 11.743465 l 17.294894,-16.33407 v -6.29877 H 69.760669 Z" />
      <path
         style="fill:#808080;fill-opacity:1;stroke:#000000;stroke-width:3.22798;stroke-linecap:round;stroke-linejoin:round;stroke-miterlimit:4;stroke-dasharray:none;stroke-opacity:1"
         d="m 141.24715,141.7375 h -9.09763 a 3.327433,3.327433 21.681718 0 1 -2.2847,-0.90835 l -15.37133,-14.51737 a 3.0690822,3.0690822 66.681718 0 1 -0.96178,-2.23127 l 0,-3.65293 a 1.3229167,1.3229167 135 0 1 1.32292,-1.32292 l 26.39252,0 a 1.3229167,1.3229167 45 0 1 1.32292,1.32292 l 0,19.987 a 1.3229167,1.3229167 135 0 1 -1.32292,1.32292 z"
         id="path312-8-8"
         inkscape:connector-curvature="0"
         inkscape:path-effect="#path-effect4345"
         inkscape:original-d="M 142.57007,141.7375 H 130.8266 l -17.29489,-16.33407 v -6.29877 h 29.03836 z" />
      <path
         style="opacity:0.97;fill:none;stroke:#000000;stroke-width:3.22798;stroke-linecap:butt;stroke-linejoin:miter;stroke-miterlimit:4;stroke-dasharray:none;stroke-opacity:1"
         d="m 62.606804,168.41495 43.511866,20.94267 43.44511,-20.94267"
         id="path324-2-5"
         inkscape:connector-curvature="0"
         sodipodi:nodetypes="ccc"
         inkscape:path-effect="#path-effect4349"
         inkscape:original-d="m 62.606804,168.41495 43.511866,20.94267 43.44511,-20.94267" />
      <path
         style="fill:#ffffff;stroke:#000000;stroke-width:3.22798;stroke-linecap:butt;stroke-linejoin:miter;stroke-miterlimit:4;stroke-dasharray:none;stroke-opacity:1"
         d="m 106.11867,189.35762 v 16.22732"
         id="path330-4-6"
         inkscape:connector-curvature="0" />
      <path
         inkscape:connector-curvature="0"
         id="path332-4-2"
         d="m 90.478525,181.671 v 16.22732"
         style="fill:#ffffff;stroke:#000000;stroke-width:3.22798;stroke-linecap:butt;stroke-linejoin:miter;stroke-miterlimit:4;stroke-dasharray:none;stroke-opacity:1" />
      <path
         style="fill:#ffffff;stroke:#000000;stroke-width:3.22798;stroke-linecap:butt;stroke-linejoin:miter;stroke-miterlimit:4;stroke-dasharray:none;stroke-opacity:1"
         d="m 74.838382,174.4114 v 16.22733"
         id="path334-6-2"
         inkscape:connector-curvature="0" />
      <path
         style="fill:#ffffff;stroke:#000000;stroke-width:3.22798;stroke-linecap:butt;stroke-linejoin:miter;stroke-miterlimit:4;stroke-dasharray:none;stroke-opacity:1"
         d="m 121.75881,181.671 v 16.22732"
         id="path336-9-0"
         inkscape:connector-curvature="0" />
      <path
         inkscape:connector-curvature="0"
         id="path338-7-4"
         d="m 137.39895,174.4114 v 16.22733"
         style="fill:#ffffff;stroke:#000000;stroke-width:3.22798;stroke-linecap:butt;stroke-linejoin:miter;stroke-miterlimit:4;stroke-dasharray:none;stroke-opacity:1" />
      <path
         sodipodi:nodetypes="cccc"
         inkscape:connector-curvature="0"
         d="m 107.04649,142.91686 12.86372,17.81865 a 1.0684348,1.0684348 105.24795 0 1 -0.4372,1.60388 l -11.98932,5.25736 a 3.0168887,3.0168887 180 0 1 -2.4231,0 l -11.989323,-5.25736 a 1.0684344,1.0684344 74.752049 0 1 -0.437207,-1.60388 l 12.86373,-17.81865 a 0.95504705,0.95504705 5.6600404e-6 0 1 1.5487,0 z"
         style="fill:#808080;fill-opacity:1;stroke:#000000;stroke-width:3.22798;stroke-linecap:round;stroke-linejoin:round;stroke-miterlimit:4;stroke-dasharray:none;stroke-opacity:1"
         id="path318-8-7"
         inkscape:path-effect="#path-effect4353"
         inkscape:original-d="m 106.27214,141.84425 14.41242,19.96387 -14.41242,6.3199 -14.412426,-6.3199 z" />
    </g>
  </g>
</svg>
