<?xml version="1.0" encoding="UTF-8" standalone="no"?>
<!-- Generator: Adobe Illustrator 19.0.0, SVG Export Plug-In . SVG Version: 6.00 Build 0)  -->

<svg
   version="1.1"
   id="Capa_1"
   x="0px"
   y="0px"
   viewBox="0 0 512 512"
   style="enable-background:new 0 0 512 512;"
   xml:space="preserve"
   sodipodi:docname="cv.svg"
   inkscape:version="1.1 (c68e22c387, 2021-05-23)"
   xmlns:inkscape="http://www.inkscape.org/namespaces/inkscape"
   xmlns:sodipodi="http://sodipodi.sourceforge.net/DTD/sodipodi-0.dtd"
   xmlns="http://www.w3.org/2000/svg"
   xmlns:svg="http://www.w3.org/2000/svg"><defs
   id="defs963" /><sodipodi:namedview
   id="namedview961"
   pagecolor="#ffffff"
   bordercolor="#666666"
   borderopacity="1.0"
   inkscape:pageshadow="2"
   inkscape:pageopacity="0.0"
   inkscape:pagecheckerboard="0"
   showgrid="false"
   inkscape:zoom="0.88867188"
   inkscape:cx="256"
   inkscape:cy="256"
   inkscape:window-width="1366"
   inkscape:window-height="705"
   inkscape:window-x="-8"
   inkscape:window-y="-8"
   inkscape:window-maximized="1"
   inkscape:current-layer="Capa_1" />
<g
   id="g922"
   style="fill:#f72585;fill-opacity:1">
	<g
   id="g920"
   style="fill:#f72585;fill-opacity:1">
		<polygon
   points="333.205,34.213 330.799,0 9.545,22.591 39.863,453.709 68.863,451.669 68.863,79.817 420.93,79.817     420.93,478.34 456.185,482.135 502.455,52.438   "
   id="polygon918"
   style="fill:#f72585;fill-opacity:1" />
	</g>
</g>
<g
   id="g928"
   style="fill:#f72585;fill-opacity:1">
	<g
   id="g926"
   style="fill:#f72585;fill-opacity:1">
		<path
   d="M98.884,109.838V512H390.91V109.838H98.884z M195.09,178.286c18.508,0,33.097,6.755,42.418,18.912l-20.128,17.966    c-5.539-7.025-12.157-11.078-20.668-11.078c-13.239,0-22.154,9.186-22.154,23.64c0,14.454,8.916,23.64,22.154,23.64    c8.511,0,15.13-4.053,20.668-11.078l20.128,17.966c-9.321,12.157-23.911,18.912-42.418,18.912    c-30.395,0-52.684-20.398-52.684-49.442C142.406,198.684,164.696,178.286,195.09,178.286z M342.795,448.571H146.998V418.55    h195.797V448.571z M342.795,395.172H146.998v-30.021h195.797V395.172z M342.795,341.773H146.998v-30.021h195.797V341.773z     M307.756,275.009h-31.341l-39.986-94.562h34.313l22.56,55.251l23.101-55.251h31.339L307.756,275.009z"
   id="path924"
   style="fill:#f72585;fill-opacity:1" />
	</g>
</g>
<g
   id="g930">
</g>
<g
   id="g932">
</g>
<g
   id="g934">
</g>
<g
   id="g936">
</g>
<g
   id="g938">
</g>
<g
   id="g940">
</g>
<g
   id="g942">
</g>
<g
   id="g944">
</g>
<g
   id="g946">
</g>
<g
   id="g948">
</g>
<g
   id="g950">
</g>
<g
   id="g952">
</g>
<g
   id="g954">
</g>
<g
   id="g956">
</g>
<g
   id="g958">
</g>
</svg>
