<?xml version="1.0" encoding="UTF-8" standalone="no"?>
<svg
   width="256px"
   height="258px"
   viewBox="0 0 256 258"
   version="1.1"
   preserveAspectRatio="xMidYMid"
   id="svg57"
   sodipodi:docname="whatsapp-icon.svg"
   inkscape:version="1.2 (dc2aedaf03, 2022-05-15)"
   xmlns:inkscape="http://www.inkscape.org/namespaces/inkscape"
   xmlns:sodipodi="http://sodipodi.sourceforge.net/DTD/sodipodi-0.dtd"
   xmlns="http://www.w3.org/2000/svg"
   xmlns:svg="http://www.w3.org/2000/svg">
  <sodipodi:namedview
     id="namedview59"
     pagecolor="#505050"
     bordercolor="#ffffff"
     borderopacity="1"
     inkscape:showpageshadow="0"
     inkscape:pageopacity="0"
     inkscape:pagecheckerboard="1"
     inkscape:deskcolor="#505050"
     showgrid="false"
     inkscape:zoom="1.737619"
     inkscape:cx="-13.236504"
     inkscape:cy="99.561527"
     inkscape:window-width="1600"
     inkscape:window-height="837"
     inkscape:window-x="-8"
     inkscape:window-y="-8"
     inkscape:window-maximized="1"
     inkscape:current-layer="g55" />
  <title
     id="title35">WhatsApp</title>
  <defs
     id="defs47">
    <linearGradient
       x1="49.9999726%"
       y1="100.000225%"
       x2="49.9999726%"
       y2="4.85578831e-05%"
       id="whatsappLinearGradient-1">
      <stop
         stop-color="#1FAF38"
         offset="0%"
         id="stop37" />
      <stop
         stop-color="#60D669"
         offset="100%"
         id="stop39" />
    </linearGradient>
    <linearGradient
       x1="50.0000414%"
       y1="100.000108%"
       x2="50.0000414%"
       y2="-0.000129944756%"
       id="whatsappLinearGradient-2">
      <stop
         stop-color="#F9F9F9"
         offset="0%"
         id="stop42" />
      <stop
         stop-color="#FFFFFF"
         offset="100%"
         id="stop44" />
    </linearGradient>
  </defs>
  <g
     id="g55">
    <path
       id="path49"
       style="fill:#1e1e1e;fill-opacity:1"
       d="M 128.51367 4.453125 C 60.691052 4.453125 5.491406 59.633116 5.4628906 127.45703 C 5.4564099 149.13393 11.120871 170.29952 21.890625 188.95508 L 4.4335938 252.69727 L 69.664062 235.59375 C 87.635255 245.3888 107.87153 250.55927 128.46484 250.56445 L 128.51953 250.56445 C 196.33437 250.56445 251.53788 195.37924 251.56641 127.55273 C 251.57936 94.68483 238.79022 63.779073 215.55664 40.527344 C 192.32695 17.276911 161.43213 4.4673827 128.51367 4.453125 z M 83.408203 68.570312 C 85.530009 68.570313 87.654328 68.565466 89.511719 68.644531 C 91.781287 68.737854 94.291513 68.84457 96.677734 74.148438 C 99.509834 80.446456 105.69896 96.196088 106.49609 97.789062 C 107.29193 99.382037 107.82457 101.24149 106.76172 103.36719 C 105.70017 105.49159 105.16916 106.8197 103.58008 108.67969 C 101.9871 110.53837 100.23174 112.82879 98.800781 114.25586 C 97.203918 115.84365 95.544953 117.56925 97.402344 120.75391 C 99.26103 123.94245 105.65268 134.36869 115.12109 142.81055 C 127.2894 153.65937 137.54647 157.01903 140.73242 158.61719 C 143.91707 160.21016 145.77738 159.94274 147.63477 157.81445 C 149.49345 155.69005 155.59174 148.51864 157.71484 145.33398 C 159.83924 142.14544 161.96258 142.67673 164.88281 143.73828 C 167.80175 144.80113 183.46053 152.50663 186.64648 154.09961 C 189.83114 155.69129 191.95416 156.48719 192.75 157.81445 C 193.54584 159.1456 193.5471 165.52099 190.89258 172.95703 C 188.23935 180.39437 175.23371 187.56558 169.39453 188.0957 C 163.55535 188.62713 158.08008 190.73794 131.17578 180.12891 C 98.804304 167.36307 78.364459 134.17779 76.771484 132.05469 C 75.181102 129.9277 63.767578 114.7877 63.767578 99.117188 C 63.767578 83.447967 71.995778 75.741933 74.916016 72.554688 C 77.833661 69.368738 81.283805 68.570312 83.408203 68.570312 z " />
    <path
       d="M1.07062531,127.416078 C1.06284837,149.873286 6.93054909,171.796478 18.0839762,191.11958 L18.0839762,191.11958 L0,257.147091 L67.5712334,239.429927 C86.1892261,249.581425 107.15067,254.933255 128.481518,254.941032 L128.481518,254.941032 L128.535957,254.941032 C198.783754,254.941032 255.970181,197.772751 256,127.518474 L256,127.518474 C256.011658,93.4697375 242.763642,61.4533745 218.700495,37.3681934 L218.700495,37.3681934 C194.63346,13.2856047 162.632651,0.0142577221 128.535957,0 L128.535957,0 C58.2751986,0 1.09914076,57.1592078 1.07062531,127.416078 L1.07062531,127.416078 Z M41.3098055,187.792346 L38.7874848,183.787222 C28.1810358,166.922929 22.5829356,147.435216 22.5907045,127.423855 L22.5907045,127.423855 C22.6140434,69.0294095 70.1376234,21.5213834 128.576138,21.5213834 L128.576138,21.5213834 C156.875124,21.5330488 183.472256,32.5646372 203.47584,52.5811829 L203.47584,52.5811829 C223.479424,72.5990247 234.486386,99.2091187 234.478613,127.510697 L234.478613,127.510697 C234.452686,185.906438 186.92781,233.420945 128.535957,233.420945 L128.535957,233.420945 L128.49448,233.420945 C109.481159,233.410576 90.8346512,228.305015 74.571775,218.656426 L74.571775,218.656426 L70.7014515,216.360933 L30.6035524,226.874058 L41.3098055,187.792346 Z"
       fill="url(#whatsappLinearGradient-2)"
       id="path51"
       style="fill:#1e1e1e;fill-opacity:1" />
  </g>
</svg>
